<svg width="54" height="58" viewBox="0 0 54 58" fill="none" xmlns="http://www.w3.org/2000/svg">
<g id="EMVCoContactlessIndicator 2" style="mix-blend-mode:difference">
<path id="Vector" d="M20.7383 41.5976C17.4835 38.9784 14.9755 35.5486 13.4664 31.6529C11.9573 27.7572 11.5003 23.5329 12.1412 19.4045M24.6751 37.265C22.1364 35.222 20.1801 32.5468 19.003 29.5081C17.8259 26.4695 17.4694 23.1745 17.9693 19.9544M28.4673 33.2181C26.6238 31.7206 25.2004 29.7632 24.3402 27.5427C23.48 25.3221 23.2133 22.9167 23.567 20.568M32.1908 28.9937C30.9349 28.1021 29.979 26.8806 29.4318 25.4682C28.8847 24.0558 28.7683 22.5091 29.0958 21.0042" stroke="url(#paint0_linear_1_16072)" stroke-width="3" stroke-linecap="round"/>
</g>
<defs>
<linearGradient id="paint0_linear_1_16072" x1="26.3534" y1="39.4224" x2="17.7563" y2="17.2293" gradientUnits="userSpaceOnUse">
<stop stop-color="#61C2C3"/>
<stop offset="1" stop-color="#854CF4"/>
</linearGradient>
</defs>
</svg>
